<svg xmlns="http://www.w3.org/2000/svg" xmlns:xlink="http://www.w3.org/1999/xlink" width="239.425" height="151.387" viewBox="0 0 239.425 151.387">
  <defs>
    <linearGradient id="linear-gradient" y1="0.5" x2="1" y2="0.5" gradientUnits="objectBoundingBox">
      <stop offset="0.006" stop-color="#0064ba"/>
      <stop offset="1" stop-color="#0024b1"/>
    </linearGradient>
    <linearGradient id="linear-gradient-2" x1="0.5" x2="0.5" y2="1" gradientUnits="objectBoundingBox">
      <stop offset="0" stop-color="#fff"/>
      <stop offset="1"/>
    </linearGradient>
    <linearGradient id="linear-gradient-3" x1="0.501" y1="-0.148" x2="0.499" y2="0.862" gradientUnits="objectBoundingBox">
      <stop offset="0" stop-color="#ffde00"/>
      <stop offset="0.416" stop-color="#ffd800"/>
      <stop offset="0.917" stop-color="#ffca00"/>
      <stop offset="1" stop-color="#ffc700"/>
    </linearGradient>
    <linearGradient id="linear-gradient-6" x1="0.178" y1="2.158" x2="1.139" y2="-2.787" gradientUnits="objectBoundingBox">
      <stop offset="0.006" stop-color="#ff1206"/>
      <stop offset="1" stop-color="#ff3a0d"/>
    </linearGradient>
    <linearGradient id="linear-gradient-7" x1="-1.388" y1="10.931" x2="2.08" y2="-8.232" xlink:href="#linear-gradient-6"/>
    <linearGradient id="linear-gradient-8" x1="-0.639" y1="6.889" x2="1.404" y2="-4.569" xlink:href="#linear-gradient-6"/>
    <linearGradient id="linear-gradient-9" x1="0.094" y1="2.067" x2="1.052" y2="-1.867" xlink:href="#linear-gradient-6"/>
    <linearGradient id="linear-gradient-10" x1="0.061" y1="1.533" x2="1.073" y2="-1.624" xlink:href="#linear-gradient-6"/>
    <linearGradient id="linear-gradient-11" x1="0.5" y1="-0.11" x2="0.5" y2="0.501" xlink:href="#linear-gradient"/>
    <linearGradient id="linear-gradient-13" x1="0.483" y1="-0.149" x2="0.559" y2="1.101" xlink:href="#linear-gradient"/>
    <linearGradient id="linear-gradient-14" x1="0.474" y1="-0.154" x2="0.522" y2="1.056" xlink:href="#linear-gradient"/>
    <linearGradient id="linear-gradient-15" x1="0.473" y1="-0.183" x2="0.521" y2="1.026" xlink:href="#linear-gradient"/>
  </defs>
  <g id="Artwork_2" data-name="Artwork 2" transform="translate(119.713 75.693)">
    <g id="Grupo_42" data-name="Grupo 42" transform="translate(-119.713 -75.693)">
      <g id="Grupo_40" data-name="Grupo 40">
        <g id="Grupo_33" data-name="Grupo 33" transform="translate(10.81 11.774)">
          <ellipse id="Elipse_2" data-name="Elipse 2" cx="103.525" cy="69.806" rx="103.525" ry="69.806" transform="translate(0 0)" fill="url(#linear-gradient)"/>
          <path id="Caminho_53" data-name="Caminho 53" d="M127.426,28.06c55.966,0,101.5,30.406,101.5,67.78s-45.532,67.78-101.5,67.78-101.5-30.406-101.5-67.78,45.532-67.78,101.5-67.78m0-2.027C70.251,26.033,23.9,57.287,23.9,95.839s46.35,69.806,103.525,69.806,103.525-31.254,103.525-69.806S184.6,26.033,127.426,26.033Z" transform="translate(-23.901 -26.033)" opacity="0.49" fill="url(#linear-gradient-2)" style="mix-blend-mode: overlay;isolation: isolate"/>
          <ellipse id="Elipse_3" data-name="Elipse 3" cx="98.364" cy="64.348" rx="98.364" ry="64.348" transform="translate(5.162 4.931)" fill="url(#linear-gradient-3)"/>
        </g>
        <g id="Grupo_39" data-name="Grupo 39">
          <g id="Grupo_34" data-name="Grupo 34">
            <path id="Caminho_54" data-name="Caminho 54" d="M472.707,34.319A41.052,41.052,0,0,0,434.482.013c-.149-.008-.3-.013-.445-.013A7.944,7.944,0,0,0,428.3,2.479a8.065,8.065,0,0,0-2.185,5.958,7.978,7.978,0,0,0,5.48,7.146,8.013,8.013,0,0,0-2.508,1.778,7.892,7.892,0,0,0-2.169,5.909,8.039,8.039,0,0,0,6.815,7.465,10.413,10.413,0,0,1,5.4,2.54,10.2,10.2,0,0,1,3.075,5.05,8.015,8.015,0,0,0,7.74,6.032c.14,0,.279,0,.452-.013a7.942,7.942,0,0,0,6.007-3.257,8.038,8.038,0,0,0,1.131-2.21,7.959,7.959,0,0,0,7.263,4.676c.142,0,.284,0,.445-.013a8.019,8.019,0,0,0,5.815-2.984A7.919,7.919,0,0,0,472.707,34.319Z" transform="translate(-233.386)" fill="url(#linear-gradient)"/>
            <path id="Caminho_55" data-name="Caminho 55" d="M219.1,83.524c-1.3-20.493-18.33-41.688-44.585-41.688l-.729.006a44.537,44.537,0,0,0-31.855,13.5,46.164,46.164,0,0,0-12.418,29.25,45.106,45.106,0,0,0-6.154-8.107,44.386,44.386,0,0,0-32.4-13.87c-.384,0-.762.007-1.179.013a45.048,45.048,0,0,0-5.913.554A18.661,18.661,0,0,0,85.5,55.543V40.781a8.657,8.657,0,0,0-10.789-8.42L6.407,49.761A8.421,8.421,0,0,0,0,57.953v23.09a8.437,8.437,0,0,0,8.426,8.433,8.543,8.543,0,0,0,2.032-.247l12.392-3.074L22.9,98.93c-.019,9.383-.019,16.95-.007,24.556v3.19c-.006,5.008,0,9.663.007,14.033l.006,4.33c.007,5.21.013,9.976,0,14.423a8.03,8.03,0,0,0,3.23,6.473,7.6,7.6,0,0,0,4.272,1.576c.029,0,.061,0,.093.005h.37A21.631,21.631,0,0,0,52.484,145.86v-9.4l.007-6.108a44.855,44.855,0,0,0,38.471,21.834c.879,0,1.823-.033,2.806-.085a44.623,44.623,0,0,0,29.055-13.283,45.411,45.411,0,0,0,6.622-8.57c.007,2.3.026,4.741.039,7.371-.026.352-.033.691-.039,1.009l-.006.208c-.007.97-.013,2.618-.019,5.294a8.031,8.031,0,0,0,2.325,5.691,8.242,8.242,0,0,0,3.8,2.142v.254h2.025a17.4,17.4,0,0,0,17.295-17.041v-8.048a43.222,43.222,0,0,0,19.1,4.48,44.721,44.721,0,0,0,5.463-.338c.345-.039.7-.078,1.022-.13,1.016-.143,2.058-.332,3.113-.547a44.261,44.261,0,0,0,13.6-5.326c.358-.215.7-.43,1.029-.644A45.269,45.269,0,0,0,219.1,83.524Zm-166.581.97.006-6.095,5.646-1.413A44.88,44.88,0,0,0,52.523,84.494ZM90.9,126.155a18.245,18.245,0,1,1,18.252-18.246A18.25,18.25,0,0,1,90.9,126.155Zm83.564-20.205A18.246,18.246,0,1,1,192.712,87.7,18.25,18.25,0,0,1,174.467,105.95Z" transform="translate(0 -17.579)" fill="url(#linear-gradient)"/>
          </g>
          <g id="Grupo_35" data-name="Grupo 35" transform="translate(3.184 3.18)">
            <path id="Caminho_56" data-name="Caminho 56" d="M180.827,119.5a41.216,41.216,0,0,0-30.1-12.89c-.368,0-.729.008-1.1.015a41.795,41.795,0,0,0-40.51,41.021c-.015,1.157.015,2.329.1,3.6l.023.263a45.921,45.921,0,0,0,2.186,10.419c.075.225.151.443.233.668a41.764,41.764,0,0,0,39.061,27.222c.864,0,1.743-.03,2.606-.083A41.6,41.6,0,0,0,180.827,119.5Zm-48.135,29.228A17.979,17.979,0,1,1,150.675,166.7,18,18,0,0,1,132.692,148.723Z" transform="translate(-62.95 -61.571)" fill="#fff"/>
            <path id="Caminho_57" data-name="Caminho 57" d="M452.5,45.6a23.02,23.02,0,0,0-12.035-5.674,5,5,0,0,0-.724-.052,4.872,4.872,0,0,0-3.523,1.515,4.736,4.736,0,0,0-1.3,3.55,4.847,4.847,0,0,0,4.118,4.493,13.578,13.578,0,0,1,7.05,3.318,13.374,13.374,0,0,1,4.03,6.619,4.835,4.835,0,0,0,4.661,3.649c.086,0,.171,0,.28-.008a4.775,4.775,0,0,0,3.61-1.957,4.851,4.851,0,0,0,.775-4.1A23.024,23.024,0,0,0,452.5,45.6Z" transform="translate(-241.393 -25.02)" fill="#fff"/>
            <path id="Caminho_58" data-name="Caminho 58" d="M473.421,38.687A37.873,37.873,0,0,0,438.156,7.04c-.089-.005-.179-.008-.267-.008a4.688,4.688,0,0,0-3.432,1.486,4.866,4.866,0,0,0-1.317,3.6,4.815,4.815,0,0,0,4.562,4.539,28.174,28.174,0,0,1,26.207,23.517,4.8,4.8,0,0,0,4.744,4.052c.085,0,.172,0,.275-.007a4.846,4.846,0,0,0,3.508-1.8A4.738,4.738,0,0,0,473.421,38.687Z" transform="translate(-240.422 -7.032)" fill="#fff"/>
            <path id="Caminho_59" data-name="Caminho 59" d="M376.487,99.373c-1.209-19.027-17.029-38.707-41.412-38.707-.225,0-.45.008-.683.008a41.345,41.345,0,0,0-29.6,12.514c-7.5,7.842-11.628,18.584-11.636,30.264l-.015,12.056c-.015,12.995-.023,21.573.083,37.686-.038.323-.038.729-.045,1.314-.007.969-.015,2.606-.023,5.273a4.852,4.852,0,0,0,1.4,3.44,5.042,5.042,0,0,0,3.215,1.442v.023h.36a14.175,14.175,0,0,0,14.115-13.867V137.345a40.352,40.352,0,0,0,27.583,6.385c.33-.038.668-.083,1-.143.879-.12,1.758-.278,2.644-.466a40.888,40.888,0,0,0,10.764-3.891c.608-.323,1.2-.653,1.788-1.006A42.262,42.262,0,0,0,376.487,99.373Zm-23.654,3.951A17.979,17.979,0,1,1,334.85,85.349,18,18,0,0,1,352.833,103.325Z" transform="translate(-163.738 -36.409)" fill="#fff"/>
            <path id="Caminho_60" data-name="Caminho 60" d="M86.183,59.395V44.634A5.489,5.489,0,0,0,79.354,39.3L11.022,56.708a5.232,5.232,0,0,0-3.982,5.1V84.9a5.253,5.253,0,0,0,5.242,5.251,5.36,5.36,0,0,0,1.264-.154L28.7,86.234l1.161-.306.069,16.866c-.021,7.706-.024,15.735-.008,24.543v3.2c-.007,6.42,0,12.253.01,17.651.008,5.49.016,10.49,0,15.132a4.857,4.857,0,0,0,3.23,4.607,3.355,3.355,0,0,0,1.118.257c.026,0,.054.006.083.008s.065,0,.1,0h.247a18.466,18.466,0,0,0,18.44-18.48v-9.4l.044-60.536L74.423,74.46A15.513,15.513,0,0,0,86.183,59.395Z" transform="translate(-7.04 -24.615)" fill="#fff"/>
          </g>
          <g id="Grupo_36" data-name="Grupo 36" transform="translate(4.311 4.307)">
            <path id="Caminho_61" data-name="Caminho 61" d="M151.026,109.114a40.666,40.666,0,0,0-39.414,39.909c-.015,1.18.023,2.329.105,3.478.007.083.015.173.023.263a44.4,44.4,0,0,0,2.118,10.126c.075.225.15.45.233.676a40.481,40.481,0,1,0,36.935-54.452Zm1.014,58.951a17.979,17.979,0,1,1,17.975-17.975A18,18,0,0,1,152.04,168.065Z" transform="translate(-65.442 -64.064)" fill="url(#linear-gradient-6)"/>
            <path id="Caminho_62" data-name="Caminho 62" d="M453.109,47.8a21.886,21.886,0,0,0-11.446-5.4,3.68,3.68,0,1,0-1.1,7.277,14.694,14.694,0,0,1,7.633,3.593,14.5,14.5,0,0,1,4.369,7.175,3.7,3.7,0,0,0,3.768,2.8h.021A3.7,3.7,0,0,0,459.71,58.6,21.89,21.89,0,0,0,453.109,47.8Z" transform="translate(-243.885 -27.51)" fill="url(#linear-gradient-7)"/>
            <path id="Caminho_63" data-name="Caminho 63" d="M473.673,40.234A36.747,36.747,0,0,0,439.454,9.528a3.667,3.667,0,0,0-3.827,3.879v.012a3.689,3.689,0,0,0,3.5,3.476,29.3,29.3,0,0,1,27.257,24.459,3.689,3.689,0,0,0,3.833,3.1h.012A3.667,3.667,0,0,0,473.673,40.234Z" transform="translate(-242.912 -9.523)" fill="url(#linear-gradient-8)"/>
            <path id="Caminho_64" data-name="Caminho 64" d="M376.726,100.816c-1.119-17.637-15.97-38.016-40.953-37.648-23.316.346-40.112,18.216-40.127,41.652-.015,21.033-.068,29.3.067,50.335.015,2.021-.038-5.439-.067,5.994a3.752,3.752,0,0,0,3.989,3.763l-.143.015a12.98,12.98,0,0,0,12.988-12.74V136.6c8.789,6.13,18.343,8.714,28.71,7.369.33-.045.661-.1,1-.151.8-.12,1.6-.263,2.411-.436a39.584,39.584,0,0,0,8.458-2.787c.691-.315,1.375-.653,2.043-1.006A41.024,41.024,0,0,0,376.726,100.816Zm-40.51,21.859A17.979,17.979,0,1,1,354.2,104.692,18,18,0,0,1,336.216,122.675Z" transform="translate(-166.231 -38.903)" fill="url(#linear-gradient-9)"/>
            <path id="Caminho_65" data-name="Caminho 65" d="M86.42,60.759V46A4.373,4.373,0,0,0,81,41.755L12.656,59.167a4.117,4.117,0,0,0-3.125,4V86.261a4.124,4.124,0,0,0,5.108,4l15.144-3.756,2.569-.676.075,18.328q-.034,12.27-.008,24.541v3.2c-.015,13,.038,23.6.015,32.781a3.748,3.748,0,0,0,3.23,3.733v.008s.128.008.188.008A17.34,17.34,0,0,0,53.4,151.08v-9.4l.045-61.415,22.069-5.529A14.405,14.405,0,0,0,86.42,60.759Z" transform="translate(-9.531 -27.106)" fill="url(#linear-gradient-10)"/>
          </g>
          <path id="Caminho_66" data-name="Caminho 66" d="M177.406,156.647a19.482,19.482,0,1,0,19.478,19.485A19.482,19.482,0,0,0,177.406,156.647Zm0,37.461a17.979,17.979,0,1,1,17.975-17.975A18,18,0,0,1,177.406,194.108Z" transform="translate(-86.497 -85.8)" fill="#fff"/>
          <path id="Caminho_67" data-name="Caminho 67" d="M361.788,111.92A19.481,19.481,0,1,0,381.273,131.4,19.478,19.478,0,0,0,361.788,111.92Zm0,37.461A17.979,17.979,0,1,1,379.771,131.4,18,18,0,0,1,361.788,149.381Z" transform="translate(-187.492 -61.301)" fill="#fff"/>
          <g id="Grupo_38" data-name="Grupo 38" transform="translate(167.3 99.363)">
            <g id="Grupo_37" data-name="Grupo 37">
              <path id="Caminho_68" data-name="Caminho 68" d="M392.865,219.7h-21.65A1.307,1.307,0,0,0,369.909,221v29.447a1.307,1.307,0,0,0,1.306,1.306h8.326a1.308,1.308,0,0,0,1.306-1.306v-8.491a.306.306,0,0,1,.305-.306h10.2a1.307,1.307,0,0,0,1.306-1.306v-7.69a1.308,1.308,0,0,0-1.306-1.306h-9.87a.636.636,0,0,1,0-1.272h11.382a1.307,1.307,0,0,0,1.305-1.306V221A1.307,1.307,0,0,0,392.865,219.7Z" transform="translate(-369.909 -219.697)" fill="#fff"/>
              <path id="Caminho_69" data-name="Caminho 69" d="M460.742,219.7h-6.821a1.081,1.081,0,0,0-.886.46l-8.942,12.7.409.288-.546-.287-8.977-12.7a1.085,1.085,0,0,0-.886-.459h-6.741a1.085,1.085,0,0,0-1.084,1.084v29.89a1.085,1.085,0,0,0,1.084,1.084h8.611a1.085,1.085,0,0,0,1.084-1.084v-8.62a.064.064,0,0,1,.071-.071.188.188,0,0,1,.081.021l4.2,5.768a1.087,1.087,0,0,0,.876.446h3.474a1.087,1.087,0,0,0,.877-.446l4.256-5.8a.084.084,0,0,1,.09.085v8.62a1.085,1.085,0,0,0,1.084,1.084h8.691a1.085,1.085,0,0,0,1.084-1.084v-29.89A1.085,1.085,0,0,0,460.742,219.7Z" transform="translate(-400.779 -219.697)" fill="#fff"/>
            </g>
            <path id="Caminho_70" data-name="Caminho 70" d="M394.031,222.652h-20.78a.4.4,0,0,0-.41.4v28.59a.4.4,0,0,0,.41.4h7.46a.4.4,0,0,0,.4-.4v-9.3a.41.41,0,0,1,.41-.4h11a.406.406,0,0,0,.41-.41v-6.82a.406.406,0,0,0-.41-.41h-11a.41.41,0,0,1-.41-.4v-3.13a.418.418,0,0,1,.41-.41h12.51a.4.4,0,0,0,.41-.4v-6.91A.4.4,0,0,0,394.031,222.652Z" transform="translate(-371.515 -221.316)" fill="url(#linear-gradient-11)"/>
            <path id="Caminho_71" data-name="Caminho 71" d="M461.688,222.652h-5.83a.4.4,0,0,0-.33.17l-9.57,13.6a.4.4,0,0,1-.66,0l-9.61-13.6a.4.4,0,0,0-.33-.17h-5.75a.4.4,0,0,0-.41.4v28.59a.4.4,0,0,0,.41.4h7.3a.41.41,0,0,0,.41-.4v-11.08a.4.4,0,0,1,.73-.24l5.83,8.01a.387.387,0,0,0,.32.17h2.81a.4.4,0,0,0,.33-.17l5.83-8.01a.4.4,0,0,1,.73.24v11.08a.4.4,0,0,0,.41.4h7.38a.41.41,0,0,0,.41-.4v-28.59A.41.41,0,0,0,461.688,222.652Z" transform="translate(-402.384 -221.316)" fill="url(#linear-gradient-11)"/>
          </g>
        </g>
      </g>
      <g id="Grupo_41" data-name="Grupo 41" transform="translate(99.109 25.121)">
        <path id="Caminho_72" data-name="Caminho 72" d="M224.223,56.119h2.957V70.985h-4.024V61.531l-1.991,1.407-2.032-3Z" transform="translate(-219.134 -55.858)" stroke="#707070" stroke-width="0.452" fill="url(#linear-gradient-13)"/>
        <path id="Caminho_73" data-name="Caminho 73" d="M243.275,68.86a8.7,8.7,0,0,1-1.67-5.633,8.7,8.7,0,0,1,1.67-5.633,6.2,6.2,0,0,1,9.212,0,8.587,8.587,0,0,1,1.69,5.633,8.592,8.592,0,0,1-1.69,5.633,6.2,6.2,0,0,1-9.212,0Zm6.779-5.633c0-2.254-.785-3.762-2.152-3.762-1.388,0-2.173,1.509-2.173,3.762,0,2.313.744,3.762,2.173,3.762C249.29,66.989,250.054,65.5,250.054,63.227Z" transform="translate(-231.442 -55.543)" stroke="#707070" stroke-width="0.452" fill="url(#linear-gradient-14)"/>
        <path id="Caminho_74" data-name="Caminho 74" d="M274.381,68.86a8.706,8.706,0,0,1-1.67-5.633,8.7,8.7,0,0,1,1.67-5.633,6.2,6.2,0,0,1,9.213,0,8.59,8.59,0,0,1,1.69,5.633,8.6,8.6,0,0,1-1.69,5.633,6.2,6.2,0,0,1-9.213,0Zm6.779-5.633c0-2.254-.785-3.762-2.152-3.762-1.388,0-2.173,1.509-2.173,3.762,0,2.313.744,3.762,2.173,3.762C280.4,66.989,281.159,65.5,281.159,63.227Z" transform="translate(-248.479 -55.543)" stroke="#707070" stroke-width="0.452" fill="url(#linear-gradient-15)"/>
      </g>
    </g>
  </g>
</svg>
