<svg width="62" height="61" viewBox="0 0 62 61" fill="none" xmlns="http://www.w3.org/2000/svg">
<path d="M30.9967 34.2085C32.7088 34.2085 34.0967 32.8206 34.0967 31.1085C34.0967 29.3964 32.7088 28.0085 30.9967 28.0085C29.2846 28.0085 27.8967 29.3964 27.8967 31.1085C27.8967 32.8206 29.2846 34.2085 30.9967 34.2085Z" stroke="white" stroke-width="2" stroke-linecap="round" stroke-linejoin="round"/>
<path d="M37.5687 24.5365C38.4334 25.4002 39.1193 26.4259 39.5873 27.5549C40.0554 28.6839 40.2963 29.8941 40.2963 31.1162C40.2963 32.3384 40.0554 33.5486 39.5873 34.6776C39.1193 35.8066 38.4334 36.8323 37.5687 37.696M24.4247 37.6805C23.56 36.8168 22.8741 35.7911 22.406 34.6621C21.938 33.5331 21.6971 32.3229 21.6971 31.1007C21.6971 29.8786 21.938 28.6684 22.406 27.5394C22.8741 26.4104 23.56 25.3847 24.4247 24.521M41.9552 20.15C44.861 23.0567 46.4934 26.9984 46.4934 31.1085C46.4934 35.2185 44.861 39.1603 41.9552 42.067M20.0382 42.067C17.1324 39.1603 15.5 35.2185 15.5 31.1085C15.5 26.9984 17.1324 23.0567 20.0382 20.15" stroke="white" stroke-width="2" stroke-linecap="round" stroke-linejoin="round"/>
</svg>
