<svg width="67" height="63" viewBox="0 0 67 63" fill="none" xmlns="http://www.w3.org/2000/svg">
<path d="M46.9 33.5V50.25H20.1V33.5" stroke="white" stroke-width="2" stroke-linecap="round" stroke-linejoin="round"/>
<path d="M50.25 25.125H16.75V33.5H50.25V25.125Z" stroke="white" stroke-width="2" stroke-linecap="round" stroke-linejoin="round"/>
<path d="M33.5 50.25V25.125" stroke="white" stroke-width="2" stroke-linecap="round" stroke-linejoin="round"/>
<path d="M33.5 25.125H25.9625C24.8519 25.125 23.7868 24.6838 23.0015 23.8985C22.2162 23.1132 21.775 22.0481 21.775 20.9375C21.775 19.8269 22.2162 18.7618 23.0015 17.9765C23.7868 17.1912 24.8519 16.75 25.9625 16.75C31.825 16.75 33.5 25.125 33.5 25.125Z" stroke="white" stroke-width="2" stroke-linecap="round" stroke-linejoin="round"/>
<path d="M33.5 25.125H41.0375C42.1481 25.125 43.2132 24.6838 43.9985 23.8985C44.7838 23.1132 45.225 22.0481 45.225 20.9375C45.225 19.8269 44.7838 18.7618 43.9985 17.9765C43.2132 17.1912 42.1481 16.75 41.0375 16.75C35.175 16.75 33.5 25.125 33.5 25.125Z" stroke="white" stroke-width="2" stroke-linecap="round" stroke-linejoin="round"/>
</svg>
